<svg xmlns="http://www.w3.org/2000/svg" xmlns:xlink="http://www.w3.org/1999/xlink" viewBox="46.75 30.16 458.9 138.75" role="img" aria-label="Webionic">
<defs>
<g>
<g id="glyph-0-0">
<path d="M 1.125 -52.15625 L 13.203125 -52.15625 L 16.796875 -27.765625 C 17.117188 -25.046875 17.46875 -22.3125 17.84375 -19.5625 C 18.21875 -16.8125 18.5625 -14.050781 18.875 -11.28125 L 19.203125 -11.28125 C 19.734375 -14.050781 20.25 -16.8125 20.75 -19.5625 C 21.257812 -22.3125 21.78125 -25.046875 22.3125 -27.765625 L 27.921875 -52.15625 L 37.921875 -52.15625 L 43.515625 -27.765625 C 44.046875 -25.097656 44.566406 -22.390625 45.078125 -19.640625 C 45.585938 -16.890625 46.109375 -14.101562 46.640625 -11.28125 L 46.953125 -11.28125 C 47.328125 -14.101562 47.6875 -16.875 48.03125 -19.59375 C 48.382812 -22.320312 48.75 -25.046875 49.125 -27.765625 L 52.71875 -52.15625 L 64 -52.15625 L 54.71875 0 L 39.921875 0 L 34.796875 -23.6875 C 34.367188 -25.707031 33.984375 -27.742188 33.640625 -29.796875 C 33.296875 -31.847656 32.988281 -33.835938 32.71875 -35.765625 L 32.40625 -35.765625 C 32.082031 -33.835938 31.742188 -31.847656 31.390625 -29.796875 C 31.046875 -27.742188 30.660156 -25.707031 30.234375 -23.6875 L 25.359375 0 L 10.796875 0 Z M 1.125 -52.15625 "/>
</g>
<g id="glyph-0-1">
<path d="M 22.953125 0.953125 C 20.128906 0.953125 17.488281 0.488281 15.03125 -0.4375 C 12.582031 -1.375 10.453125 -2.734375 8.640625 -4.515625 C 6.828125 -6.304688 5.410156 -8.476562 4.390625 -11.03125 C 3.378906 -13.59375 2.875 -16.53125 2.875 -19.84375 C 2.875 -23.039062 3.40625 -25.929688 4.46875 -28.515625 C 5.539062 -31.109375 6.941406 -33.296875 8.671875 -35.078125 C 10.410156 -36.867188 12.398438 -38.242188 14.640625 -39.203125 C 16.878906 -40.160156 19.195312 -40.640625 21.59375 -40.640625 C 24.425781 -40.640625 26.894531 -40.160156 29 -39.203125 C 31.101562 -38.242188 32.863281 -36.910156 34.28125 -35.203125 C 35.695312 -33.492188 36.75 -31.476562 37.4375 -29.15625 C 38.132812 -26.84375 38.484375 -24.320312 38.484375 -21.59375 C 38.484375 -20.53125 38.425781 -19.519531 38.3125 -18.5625 C 38.207031 -17.601562 38.101562 -16.882812 38 -16.40625 L 14.234375 -16.40625 C 14.773438 -13.519531 15.960938 -11.394531 17.796875 -10.03125 C 19.640625 -8.675781 21.894531 -8 24.5625 -8 C 27.382812 -8 30.238281 -8.878906 33.125 -10.640625 L 37.046875 -3.515625 C 35.015625 -2.128906 32.757812 -1.035156 30.28125 -0.234375 C 27.800781 0.554688 25.359375 0.953125 22.953125 0.953125 Z M 28.484375 -24.15625 C 28.484375 -26.394531 27.972656 -28.207031 26.953125 -29.59375 C 25.941406 -30.988281 24.238281 -31.6875 21.84375 -31.6875 C 19.976562 -31.6875 18.335938 -31.070312 16.921875 -29.84375 C 15.503906 -28.613281 14.582031 -26.71875 14.15625 -24.15625 Z M 28.484375 -24.15625 "/>
</g>
<g id="glyph-1-0">
<path d="M 1.125 0 L 12.40625 -56.078125 L 23.359375 -56.078125 L 20.71875 -43.359375 L 18.71875 -35.921875 L 18.875 -35.921875 C 20.632812 -37.359375 22.5 -38.503906 24.46875 -39.359375 C 26.445312 -40.210938 28.425781 -40.640625 30.40625 -40.640625 C 33.925781 -40.640625 36.671875 -39.382812 38.640625 -36.875 C 40.609375 -34.375 41.59375 -30.773438 41.59375 -26.078125 C 41.59375 -22.296875 41.003906 -18.765625 39.828125 -15.484375 C 38.660156 -12.203125 37.085938 -9.332031 35.109375 -6.875 C 33.140625 -4.425781 30.890625 -2.507812 28.359375 -1.125 C 25.828125 0.257812 23.203125 0.953125 20.484375 0.953125 C 18.671875 0.953125 17.003906 0.488281 15.484375 -0.4375 C 13.960938 -1.375 12.828125 -2.640625 12.078125 -4.234375 L 11.921875 -4.234375 L 10.15625 0 Z M 25.6875 -31.6875 C 24.457031 -31.6875 23.082031 -31.320312 21.5625 -30.59375 C 20.039062 -29.875 18.691406 -28.582031 17.515625 -26.71875 L 14.484375 -11.765625 C 15.066406 -10.429688 15.820312 -9.46875 16.75 -8.875 C 17.6875 -8.289062 18.664062 -8 19.6875 -8 C 21.070312 -8 22.398438 -8.425781 23.671875 -9.28125 C 24.953125 -10.132812 26.085938 -11.304688 27.078125 -12.796875 C 28.066406 -14.296875 28.851562 -16.054688 29.4375 -18.078125 C 30.019531 -20.109375 30.3125 -22.320312 30.3125 -24.71875 C 30.3125 -27.113281 29.882812 -28.875 29.03125 -30 C 28.1875 -31.125 27.070312 -31.6875 25.6875 -31.6875 Z M 25.6875 -31.6875 "/>
</g>
<g id="glyph-2-0">
<path d="M 10.234375 -38.875 L 16.40625 -38.875 L 8.5625 0 L 2.484375 0 Z M 15.4375 -46.953125 C 14.375 -46.953125 13.453125 -47.257812 12.671875 -47.875 C 11.898438 -48.488281 11.515625 -49.382812 11.515625 -50.5625 C 11.515625 -51.894531 11.976562 -53 12.90625 -53.875 C 13.84375 -54.757812 14.925781 -55.203125 16.15625 -55.203125 C 17.226562 -55.203125 18.148438 -54.878906 18.921875 -54.234375 C 19.691406 -53.597656 20.078125 -52.691406 20.078125 -51.515625 C 20.078125 -50.179688 19.609375 -49.085938 18.671875 -48.234375 C 17.742188 -47.378906 16.664062 -46.953125 15.4375 -46.953125 Z M 15.4375 -46.953125 "/>
</g>
<g id="glyph-2-1">
<path d="M 16.953125 0.953125 C 12.742188 0.953125 9.382812 -0.429688 6.875 -3.203125 C 4.375 -5.972656 3.125 -9.785156 3.125 -14.640625 C 3.125 -18.316406 3.707031 -21.703125 4.875 -24.796875 C 6.050781 -27.890625 7.625 -30.539062 9.59375 -32.75 C 11.570312 -34.96875 13.8125 -36.703125 16.3125 -37.953125 C 18.820312 -39.210938 21.410156 -39.84375 24.078125 -39.84375 C 28.296875 -39.84375 31.671875 -38.453125 34.203125 -35.671875 C 36.734375 -32.898438 38 -29.085938 38 -24.234375 C 38 -20.554688 37.398438 -17.171875 36.203125 -14.078125 C 35.003906 -10.984375 33.429688 -8.328125 31.484375 -6.109375 C 29.535156 -3.898438 27.289062 -2.171875 24.75 -0.921875 C 22.21875 0.324219 19.617188 0.953125 16.953125 0.953125 Z M 17.59375 -4.15625 C 19.40625 -4.15625 21.148438 -4.675781 22.828125 -5.71875 C 24.515625 -6.757812 26.023438 -8.160156 27.359375 -9.921875 C 28.691406 -11.679688 29.757812 -13.757812 30.5625 -16.15625 C 31.363281 -18.5625 31.765625 -21.125 31.765625 -23.84375 C 31.765625 -27.363281 31.054688 -30.066406 29.640625 -31.953125 C 28.222656 -33.847656 26.15625 -34.796875 23.4375 -34.796875 C 21.675781 -34.796875 19.941406 -34.273438 18.234375 -33.234375 C 16.535156 -32.203125 15.019531 -30.789062 13.6875 -29 C 12.351562 -27.207031 11.285156 -25.113281 10.484375 -22.71875 C 9.679688 -20.320312 9.28125 -17.765625 9.28125 -15.046875 C 9.28125 -11.523438 9.984375 -8.828125 11.390625 -6.953125 C 12.804688 -5.085938 14.875 -4.15625 17.59375 -4.15625 Z M 17.59375 -4.15625 "/>
</g>
<g id="glyph-2-2">
<path d="M 10.15625 -38.875 L 15.203125 -38.875 L 14.640625 -33.046875 L 14.953125 -33.046875 C 17.191406 -34.960938 19.40625 -36.570312 21.59375 -37.875 C 23.78125 -39.1875 26.101562 -39.84375 28.5625 -39.84375 C 31.863281 -39.84375 34.222656 -38.988281 35.640625 -37.28125 C 37.054688 -35.570312 37.765625 -33.195312 37.765625 -30.15625 C 37.765625 -29.25 37.722656 -28.394531 37.640625 -27.59375 C 37.554688 -26.800781 37.382812 -25.867188 37.125 -24.796875 L 32.15625 0 L 26.078125 0 L 30.875 -24 C 31.09375 -25.0625 31.253906 -25.910156 31.359375 -26.546875 C 31.460938 -27.191406 31.515625 -27.863281 31.515625 -28.5625 C 31.515625 -30.53125 31.0625 -32.019531 30.15625 -33.03125 C 29.25 -34.050781 27.785156 -34.5625 25.765625 -34.5625 C 24.210938 -34.5625 22.488281 -34 20.59375 -32.875 C 18.707031 -31.757812 16.535156 -29.972656 14.078125 -27.515625 L 8.5625 0 L 2.484375 0 Z M 10.15625 -38.875 "/>
</g>
<g id="glyph-2-3">
<path d="M 17.28125 0.953125 C 13.007812 0.953125 9.550781 -0.390625 6.90625 -3.078125 C 4.269531 -5.773438 2.953125 -9.628906 2.953125 -14.640625 C 2.953125 -18.265625 3.550781 -21.609375 4.75 -24.671875 C 5.957031 -27.742188 7.5625 -30.398438 9.5625 -32.640625 C 11.5625 -34.878906 13.867188 -36.640625 16.484375 -37.921875 C 19.097656 -39.203125 21.816406 -39.84375 24.640625 -39.84375 C 26.984375 -39.84375 28.953125 -39.390625 30.546875 -38.484375 C 32.148438 -37.578125 33.539062 -36.457031 34.71875 -35.125 L 31.125 -31.28125 C 30.101562 -32.507812 29.085938 -33.398438 28.078125 -33.953125 C 27.066406 -34.515625 25.785156 -34.796875 24.234375 -34.796875 C 22.316406 -34.796875 20.453125 -34.257812 18.640625 -33.1875 C 16.828125 -32.125 15.210938 -30.695312 13.796875 -28.90625 C 12.390625 -27.125 11.269531 -25.035156 10.4375 -22.640625 C 9.613281 -20.242188 9.203125 -17.710938 9.203125 -15.046875 C 9.203125 -11.523438 9.960938 -8.828125 11.484375 -6.953125 C 13.003906 -5.085938 15.3125 -4.15625 18.40625 -4.15625 C 20.101562 -4.15625 21.660156 -4.5 23.078125 -5.1875 C 24.492188 -5.882812 25.816406 -6.6875 27.046875 -7.59375 L 29.765625 -3.59375 C 28.378906 -2.53125 26.671875 -1.503906 24.640625 -0.515625 C 22.609375 0.460938 20.15625 0.953125 17.28125 0.953125 Z M 17.28125 0.953125 "/>
</g>
</g>
</defs>
<path d="M122.550 99.290 L105.100 129.514 L70.200 129.514 L52.750 99.290 L70.200 69.066 L105.100 69.066 Z" fill="#245b86"/><path d="M180.250 66.380 L162.800 96.604 L127.900 96.604 L110.450 66.380 L127.900 36.156 L162.800 36.156 Z" fill="#f5a623"/><path d="M180.250 132.680 L162.800 162.904 L127.900 162.904 L110.450 132.680 L127.900 102.456 L162.800 102.456 Z" fill="#9db6cf" fill-opacity="1"/>
<g fill="#0f3458" fill-opacity="1">
<use xlink:href="#glyph-0-0" x="193.1074" y="126.103"/>
<use xlink:href="#glyph-0-1" x="258.1474" y="126.103"/>
</g>
<g fill="#0f3458" fill-opacity="1">
<use xlink:href="#glyph-1-0" x="299.5874" y="126.103"/>
</g>
<g fill="#0f3458" fill-opacity="1">
<use xlink:href="#glyph-2-0" x="343.8274" y="126.103"/>
<use xlink:href="#glyph-2-1" x="362.7874" y="126.103"/>
<use xlink:href="#glyph-2-2" x="403.9874" y="126.103"/>
<use xlink:href="#glyph-2-0" x="445.9874" y="126.103"/>
<use xlink:href="#glyph-2-3" x="464.9474" y="126.103"/>
</g>
</svg>
